<svg height="480pt" viewBox="0 0 480 480" width="480pt" xmlns="http://www.w3.org/2000/svg"><path d="m296 272h112c8.835938 0 16 7.164062 16 16v112c0 8.835938-7.164062 16-16 16h-112c-8.835938 0-16-7.164062-16-16v-112c0-8.835938 7.164062-16 16-16zm0 0" fill="#78b9eb"/><path d="m72 272h112c8.835938 0 16 7.164062 16 16v112c0 8.835938-7.164062 16-16 16h-112c-8.835938 0-16-7.164062-16-16v-112c0-8.835938 7.164062-16 16-16zm0 0" fill="#78b9eb"/><path d="m456 8h-432c-8.835938 0-16 7.164062-16 16v32h464v-32c0-8.835938-7.164062-16-16-16zm0 0" fill="#78b9eb"/><g fill="#1a6fb0"><path d="m456 0h-432c-13.253906 0-24 10.746094-24 24v432c0 13.253906 10.746094 24 24 24h432c13.253906 0 24-10.746094 24-24v-432c0-13.253906-10.746094-24-24-24zm-432 16h432c4.417969 0 8 3.582031 8 8v24h-448v-24c0-4.417969 3.582031-8 8-8zm432 448h-432c-4.417969 0-8-3.582031-8-8v-392h448v392c0 4.417969-3.582031 8-8 8zm0 0"/><path d="m408 264h-112c-13.238281.039062-23.960938 10.761719-24 24v112c.039062 13.238281 10.761719 23.960938 24 24h112c13.238281-.039062 23.960938-10.761719 24-24v-112c-.039062-13.238281-10.761719-23.960938-24-24zm8 136c0 4.417969-3.582031 8-8 8h-112c-4.417969 0-8-3.582031-8-8v-112c0-4.417969 3.582031-8 8-8h112c4.417969 0 8 3.582031 8 8zm0 0"/><path d="m248 112h208v16h-208zm0 0"/><path d="m248 184h208v16h-208zm0 0"/><path d="m248 136h88v16h-88zm0 0"/><path d="m344 136h112v16h-112zm0 0"/><path d="m248 160h112v16h-112zm0 0"/><path d="m368 160h88v16h-88zm0 0"/><path d="m184 264h-112c-13.238281.039062-23.960938 10.761719-24 24v112c.039062 13.238281 10.761719 23.960938 24 24h112c13.238281-.039062 23.960938-10.761719 24-24v-112c-.039062-13.238281-10.761719-23.960938-24-24zm8 136c0 4.417969-3.582031 8-8 8h-112c-4.417969 0-8-3.582031-8-8v-112c0-4.417969 3.582031-8 8-8h112c4.417969 0 8 3.582031 8 8zm0 0"/><path d="m24 112h208v16h-208zm0 0"/><path d="m24 184h208v16h-208zm0 0"/><path d="m144 136h88v16h-88zm0 0"/><path d="m24 136h112v16h-112zm0 0"/><path d="m120 160h112v16h-112zm0 0"/><path d="m24 160h88v16h-88zm0 0"/><path d="m32 24h16v16h-16zm0 0"/><path d="m72 24h16v16h-16zm0 0"/><path d="m112 24h16v16h-16zm0 0"/></g></svg>