<svg height="512" viewBox="0 0 64 64" width="512" xmlns="http://www.w3.org/2000/svg"><g id="video_online" data-name="video online"><path d="m59 27h-20.3a8.982 8.982 0 0 1 -13.4 0h-20.3a2.006 2.006 0 0 0 -2 2v30a2.006 2.006 0 0 0 2 2h54a2.006 2.006 0 0 0 2-2v-30a2.006 2.006 0 0 0 -2-2zm-46 30a2 2 0 1 1 2-2 2.006 2.006 0 0 1 -2 2zm15-5v-10l10 5zm23 5a2 2 0 1 1 2-2 2.006 2.006 0 0 1 -2 2zm-9.2-8a10 10 0 1 0 -19.6 0h-13.2a17 17 0 0 1 17-17h12a17 17 0 0 1 17 17z" fill="#78b9eb"/><path d="m59 3h-8a2.006 2.006 0 0 0 -2 2v8a2.006 2.006 0 0 0 2 2h3l-1 4 5-4h1a2.006 2.006 0 0 0 2-2v-8a2.006 2.006 0 0 0 -2-2z" fill="#78b9eb"/><path d="m42 21a2.006 2.006 0 0 0 2-2v-1a2.006 2.006 0 0 0 -2-2h-1v5z" fill="#78b9eb"/><path d="m30 10 11 3v3l3-3v-2a8 8 0 0 0 -8-8h-8a8 8 0 0 0 -8 8v2l3 3v-3z" fill="#78b9eb"/><path d="m20 18v1a2.006 2.006 0 0 0 2 2h1v-5h-1a2.006 2.006 0 0 0 -2 2z" fill="#78b9eb"/><path d="m5 19h1l6 4-1-4h2a2.006 2.006 0 0 0 2-2v-8a2.006 2.006 0 0 0 -2-2h-8a2.006 2.006 0 0 0 -2 2v8a2.006 2.006 0 0 0 2 2z" fill="#78b9eb"/><g fill="#1a6fb0"><path d="m59 26h-18.353a9.9 9.9 0 0 0 1.3-4h.053a3 3 0 0 0 3-3v-1a3 3 0 0 0 -1.826-2.76l1.533-1.533a1 1 0 0 0 .293-.707v-2a9.01 9.01 0 0 0 -9-9h-8a9.01 9.01 0 0 0 -9 9v2a1 1 0 0 0 .293.707l1.533 1.533a3 3 0 0 0 -1.826 2.76v1a3 3 0 0 0 3 3h.051a9.9 9.9 0 0 0 1.3 4h-18.351a3 3 0 0 0 -3 3v30a3 3 0 0 0 3 3h54a3 3 0 0 0 3-3v-30a3 3 0 0 0 -3-3zm-27 3a8.009 8.009 0 0 1 -8-8v-7.341l6.073-2.6 9.927 2.705v7.236a8.009 8.009 0 0 1 -8 8zm11-10a1 1 0 0 1 -1 1v-3a1 1 0 0 1 1 1zm-22-8a7.009 7.009 0 0 1 7-7h8a7.009 7.009 0 0 1 7 7v1.586l-1 1v-.586a1 1 0 0 0 -.737-.965l-11-3a1 1 0 0 0 -.657.046l-7 3a1 1 0 0 0 -.606.919v.586l-1-1zm0 8v-1a1 1 0 0 1 1-1v3a1 1 0 0 1 -1-1zm39 40a1 1 0 0 1 -1 1h-54a1 1 0 0 1 -1-1v-30a1 1 0 0 1 1-1h19.871a9.97 9.97 0 0 0 14.258 0h19.871a1 1 0 0 1 1 1z"/><path d="m52 6h6v2h-6z"/><path d="m52 10h6v2h-6z"/><path d="m59 2h-8a3 3 0 0 0 -3 3v8a3 3 0 0 0 3 3h1.719l-.689 2.758a1 1 0 0 0 1.595 1.023l4.726-3.781h.649a3 3 0 0 0 3-3v-8a3 3 0 0 0 -3-3zm1 11a1 1 0 0 1 -1 1h-1a1 1 0 0 0 -.625.219l-2.687 2.149.282-1.126a1 1 0 0 0 -.97-1.242h-3a1 1 0 0 1 -1-1v-8a1 1 0 0 1 1-1h8a1 1 0 0 1 1 1z"/><path d="m6 10h6v2h-6z"/><path d="m6 14h6v2h-6z"/><path d="m5 20h.7l5.748 3.832a1 1 0 0 0 1.525-1.074l-.692-2.758h.719a3 3 0 0 0 3-3v-8a3 3 0 0 0 -3-3h-8a3 3 0 0 0 -3 3v8a3 3 0 0 0 3 3zm-1-11a1 1 0 0 1 1-1h8a1 1 0 0 1 1 1v8a1 1 0 0 1 -1 1h-2a1 1 0 0 0 -.97 1.242l.372 1.491-3.847-2.565a1.006 1.006 0 0 0 -.555-.168h-1a1 1 0 0 1 -1-1z"/><path d="m38.447 46.105-10-5a1 1 0 0 0 -1.447.895v10a1 1 0 0 0 1.447.9l10-5a1 1 0 0 0 0-1.79zm-9.447 4.277v-6.764l6.764 3.382z"/><path d="m8 49a1 1 0 0 0 1 1h12.426a10.942 10.942 0 0 0 .91 2.25l-1.453 1.45a1 1 0 0 1 -.713.3h-4.354a3 3 0 1 0 0 2h4.354a2.985 2.985 0 0 0 2.127-.883l1.178-1.178a10.978 10.978 0 0 0 17.05 0l1.175 1.178a2.985 2.985 0 0 0 2.13.883h4.354a3 3 0 1 0 0-2h-4.354a1 1 0 0 1 -.713-.3l-1.453-1.45a10.942 10.942 0 0 0 .91-2.25h12.426a1 1 0 0 0 1-1 18 18 0 0 0 -18-18h-12a18.021 18.021 0 0 0 -18 18zm5 7a1 1 0 1 1 1-1 1 1 0 0 1 -1 1zm38-2a1 1 0 1 1 -1 1 1 1 0 0 1 1-1zm-19 2a9 9 0 1 1 9-9 9.01 9.01 0 0 1 -9 9zm6-23a16.007 16.007 0 0 1 15.97 15h-11.021c.03-.33.051-.662.051-1a11 11 0 0 0 -22 0c0 .338.021.67.051 1h-11.02a16.021 16.021 0 0 1 15.969-15z"/></g></g></svg>