<svg height="512" viewBox="0 0 64 64" width="512" xmlns="http://www.w3.org/2000/svg"><g id="graduation_cap" data-name="graduation cap"><g fill="#78b9eb"><path d="m55 42v8l3-3 3 3v-8l-3-3z"/><path d="m3 20 10 5.86 19 11.14 19-11.14 7-4.1 3-1.76-29-17z"/><path d="m5 61h8a2.006 2.006 0 0 0 2-2v-10a6.009 6.009 0 0 0 -6-6 6 6 0 0 0 -6 6v10a2.006 2.006 0 0 0 2 2z"/></g><path d="m59 38.586v-16.255l2.506-1.469a1 1 0 0 0 0-1.724l-29-17a1 1 0 0 0 -1.012 0l-29 17a1 1 0 0 0 0 1.724l9.506 5.573v6.565a1 1 0 0 0 .466.846l18.534 11.706v10.448a4 4 0 0 1 -8 0v-11a3 3 0 0 0 -3-3h-2v-2a2 2 0 0 0 -2-2h-6a2 2 0 0 0 -2 2v2.08a7 7 0 0 0 -6 6.92v10a3 3 0 0 0 3 3h8a3 3 0 0 0 3-3v-10a7 7 0 0 0 -6-6.92v-2.08h6v2a2 2 0 0 0 2 2h2a1 1 0 0 1 1 1v11a6 6 0 0 0 12 0v-10.448l18.534-11.706a1 1 0 0 0 .466-.846v-6.565l5-2.935v15.086l-2.707 2.707a1 1 0 0 0 -.293.707v8a1 1 0 0 0 1.707.707l2.293-2.293 2.293 2.293a1 1 0 0 0 .707.293.987.987 0 0 0 .383-.076 1 1 0 0 0 .617-.924v-8a1 1 0 0 0 -.293-.707zm-45 10.414v10a1 1 0 0 1 -1 1h-8a1 1 0 0 1 -1-1v-10a5 5 0 0 1 10 0zm36-16.551-18 11.368-18-11.368v-4.842l17.494 10.255a1 1 0 0 0 1.012 0l17.494-10.255zm-18 3.392-27.022-15.841 27.022-15.841 27.022 15.841zm28 11.745-1.293-1.293a1 1 0 0 0 -1.414 0l-1.293 1.293v-5.172l2-2 2 2z" fill="#1a6fb0"/><path d="m8 46h2v8h-2z" fill="#1a6fb0"/></g></svg>