<svg height="480pt" viewBox="0 0 480 480" width="480pt" xmlns="http://www.w3.org/2000/svg"><path d="m456 8h-432c-8.835938 0-16 7.164062-16 16v32h464v-32c0-8.835938-7.164062-16-16-16zm0 0" fill="#78b9eb"/><path d="m176 256 128-64-128-64zm0 0" fill="#78b9eb"/><g fill="#1a6fb0"><path d="m456 0h-432c-13.253906 0-24 10.746094-24 24v432c0 13.253906 10.746094 24 24 24h432c13.253906 0 24-10.746094 24-24v-432c0-13.253906-10.746094-24-24-24zm-432 16h432c4.417969 0 8 3.582031 8 8v24h-448v-24c0-4.417969 3.582031-8 8-8zm432 448h-432c-4.417969 0-8-3.582031-8-8v-392h448v392c0 4.417969-3.582031 8-8 8zm0 0"/><path d="m32 24h16v16h-16zm0 0"/><path d="m72 24h16v16h-16zm0 0"/><path d="m112 24h16v16h-16zm0 0"/><path d="m440 80h-400c-4.417969 0-8 3.582031-8 8v208c0 4.417969 3.582031 8 8 8h400c4.417969 0 8-3.582031 8-8v-208c0-4.417969-3.582031-8-8-8zm-8 208h-384v-192h384zm0 0"/><path d="m88 328h136v16h-136zm0 0"/><path d="m232 328h160v16h-160zm0 0"/><path d="m88 352h160v16h-160zm0 0"/><path d="m256 352h136v16h-136zm0 0"/><path d="m256 400h136v16h-136zm0 0"/><path d="m88 400h160v16h-160zm0 0"/><path d="m232 424h160v16h-160zm0 0"/><path d="m88 424h136v16h-136zm0 0"/><path d="m88 376h304v16h-304zm0 0"/><path d="m171.800781 262.808594c2.355469 1.453125 5.296875 1.589844 7.773438.351562l128-64c2.71875-1.351562 4.433593-4.125 4.433593-7.160156s-1.714843-5.808594-4.433593-7.160156l-128-64c-2.480469-1.238282-5.425781-1.105469-7.78125.351562-2.359375 1.460938-3.792969 4.035156-3.792969 6.808594v128c0 2.773438 1.4375 5.351562 3.800781 6.808594zm12.199219-121.863282 102.113281 51.054688-102.113281 51.054688zm0 0"/></g></svg>